<svg width="30" height="30" viewBox="0 0 30 30" fill="none" xmlns="http://www.w3.org/2000/svg">
<path fill-rule="evenodd" clip-rule="evenodd" d="M19.75 0.75V4.143C19.7498 4.3229 19.6783 4.49538 19.551 4.62256C19.4238 4.74974 19.2513 4.82122 19.0714 4.8213H10.9291C10.7492 4.82122 10.5767 4.74974 10.4494 4.62256C10.3222 4.49538 10.2506 4.3229 10.2505 4.143V0.75H19.75Z" fill="black"/>
<path fill-rule="evenodd" clip-rule="evenodd" d="M21.1072 0.75V4.143C21.1072 4.41033 21.0546 4.67504 20.9523 4.92202C20.85 5.169 20.7 5.3934 20.511 5.58242C20.3219 5.77144 20.0975 5.92137 19.8505 6.02364C19.6035 6.12592 19.3388 6.17854 19.0714 6.1785H10.9291C10.6618 6.17854 10.3971 6.12592 10.1501 6.02364C9.90311 5.92137 9.67868 5.77144 9.48963 5.58242C9.30059 5.3934 9.15063 5.169 9.04832 4.92202C8.946 4.67504 8.89334 4.41033 8.89334 4.143V0.75H5.50034C5.23301 0.75 4.9683 0.80266 4.72132 0.904972C4.47434 1.00728 4.24994 1.15724 4.06092 1.34629C3.8719 1.53534 3.72198 1.75976 3.6197 2.00676C3.51743 2.25375 3.4648 2.51847 3.46484 2.7858V27.2142C3.4648 27.4815 3.51743 27.7463 3.6197 27.9932C3.72198 28.2402 3.8719 28.4647 4.06092 28.6537C4.24994 28.8428 4.47434 28.9927 4.72132 29.095C4.9683 29.1973 5.23301 29.25 5.50034 29.25H24.5005C24.7679 29.25 25.0326 29.1973 25.2796 29.095C25.5265 28.9927 25.7509 28.8428 25.94 28.6537C26.129 28.4647 26.2789 28.2402 26.3812 27.9932C26.4835 27.7463 26.5361 27.4815 26.536 27.2142V2.7858C26.5361 2.51844 26.4835 2.2537 26.3812 2.00669C26.2789 1.75967 26.1289 1.53523 25.9399 1.34618C25.7508 1.15713 25.5264 1.00718 25.2794 0.904886C25.0323 0.802591 24.7676 0.749961 24.5002 0.75H21.1072ZM6.37754 23.6226L7.73474 24.9798C7.79771 25.0428 7.87249 25.0929 7.9548 25.127C8.03711 25.1611 8.12534 25.1787 8.21444 25.1787C8.30355 25.1787 8.39178 25.1611 8.47409 25.127C8.5564 25.0929 8.63117 25.0428 8.69414 24.9798L11.4085 22.2654C11.5356 22.1381 11.6069 21.9656 11.6069 21.7857C11.6069 21.6058 11.5356 21.4333 11.4085 21.306C11.2812 21.1789 11.1086 21.1075 10.9287 21.1075C10.7488 21.1075 10.5762 21.1789 10.4488 21.306L8.21444 23.5404L7.33694 22.6632C7.20962 22.5362 7.0371 22.4648 6.85724 22.4648C6.67739 22.4648 6.50487 22.5362 6.37754 22.6632C6.25052 22.7905 6.17918 22.963 6.17918 23.1429C6.17918 23.3228 6.25052 23.4953 6.37754 23.6226ZM13.6429 23.8215H23.143C23.3195 23.8163 23.487 23.7425 23.61 23.6158C23.733 23.4891 23.8018 23.3195 23.8018 23.1429C23.8018 22.9663 23.733 22.7967 23.61 22.67C23.487 22.5433 23.3195 22.4695 23.143 22.4643H13.6429C13.4665 22.4695 13.299 22.5433 13.176 22.67C13.053 22.7967 12.9842 22.9663 12.9842 23.1429C12.9842 23.3195 13.053 23.4891 13.176 23.6158C13.299 23.7425 13.4665 23.8163 13.6429 23.8215ZM6.37754 18.1941L7.73474 19.5513C7.79771 19.6143 7.87249 19.6644 7.9548 19.6985C8.03711 19.7326 8.12534 19.7502 8.21444 19.7502C8.30355 19.7502 8.39178 19.7326 8.47409 19.6985C8.5564 19.6644 8.63117 19.6143 8.69414 19.5513L11.4085 16.8369C11.5356 16.7096 11.6069 16.5371 11.6069 16.3572C11.6069 16.1773 11.5356 16.0048 11.4085 15.8775C11.2812 15.7504 11.1086 15.679 10.9287 15.679C10.7488 15.679 10.5762 15.7504 10.4488 15.8775L8.21444 18.1119L7.33694 17.2344C7.20962 17.1074 7.0371 17.036 6.85724 17.036C6.67739 17.036 6.50487 17.1074 6.37754 17.2344C6.25042 17.3617 6.17903 17.5343 6.17903 17.7143C6.17903 17.8942 6.25042 18.0668 6.37754 18.1941ZM13.6429 18.393H23.143C23.3195 18.3878 23.487 18.314 23.61 18.1873C23.733 18.0606 23.8018 17.891 23.8018 17.7144C23.8018 17.5378 23.733 17.3682 23.61 17.2415C23.487 17.1148 23.3195 17.041 23.143 17.0358H13.6429C13.4665 17.041 13.299 17.1148 13.176 17.2415C13.053 17.3682 12.9842 17.5378 12.9842 17.7144C12.9842 17.891 13.053 18.0606 13.176 18.1873C13.299 18.314 13.4665 18.3878 13.6429 18.393ZM6.37754 12.7656L7.73474 14.1225C7.79771 14.1855 7.87249 14.2356 7.9548 14.2697C8.03711 14.3038 8.12534 14.3214 8.21444 14.3214C8.30355 14.3214 8.39178 14.3038 8.47409 14.2697C8.5564 14.2356 8.63117 14.1855 8.69414 14.1225L11.4085 11.4084C11.5357 11.2811 11.6071 11.1085 11.6071 10.9286C11.6071 10.7486 11.5357 10.576 11.4085 10.4487C11.2812 10.3216 11.1086 10.2502 10.9287 10.2502C10.7488 10.2502 10.5762 10.3216 10.4488 10.4487L8.21444 12.6834L7.33694 11.8059C7.20962 11.6789 7.0371 11.6075 6.85724 11.6075C6.67739 11.6075 6.50487 11.6789 6.37754 11.8059C6.25042 11.9332 6.17903 12.1058 6.17903 12.2858C6.17903 12.4657 6.25042 12.6383 6.37754 12.7656ZM13.6429 12.9642H23.143C23.3195 12.959 23.487 12.8852 23.61 12.7585C23.733 12.6318 23.8018 12.4622 23.8018 12.2856C23.8018 12.109 23.733 11.9394 23.61 11.8127C23.487 11.686 23.3195 11.6122 23.143 11.607H13.6429C13.4665 11.6122 13.299 11.686 13.176 11.8127C13.053 11.9394 12.9842 12.109 12.9842 12.2856C12.9842 12.4622 13.053 12.6318 13.176 12.7585C13.299 12.8852 13.4665 12.959 13.6429 12.9642Z" fill="black"/>
</svg>
