<svg width="30" height="30" viewBox="0 0 30 30" fill="none" xmlns="http://www.w3.org/2000/svg">
<g clip-path="url(#clip0_2100_1208)">
<path d="M6.16742 23.0744C5.86994 22.6351 5.94775 22.0431 6.34748 21.6969L6.87682 21.2347C6.70009 21.0835 6.57869 20.8777 6.53174 20.6498C6.48479 20.422 6.51495 20.185 6.61748 19.9762L3.42617 21.1629C1.40645 21.915 0.050293 23.8676 0.050293 26.0216V28.2488C0.050293 29.187 0.813008 29.9497 1.75121 29.9497H10.8324L6.16742 23.0744ZM21.3215 21.1629L18.1287 19.9746C18.3464 20.4142 18.2294 20.9301 17.8724 21.2331L18.4048 21.6969C18.8045 22.0417 18.8808 22.6335 18.5818 23.0744L13.9169 29.9497H22.998C23.9347 29.9497 24.6974 29.187 24.6974 28.2488V26.0216C24.6974 23.8676 23.3412 21.9151 21.3215 21.1629ZM12.5149 29.6522C12.9296 28.3806 13.3539 27.0074 13.7018 25.6997C13.3158 22.7434 13.1816 21.7061 13.1404 21.3857L13.1312 21.3247L13.3845 20.9968L12.3746 20.1776L11.3647 20.9968L11.6134 21.3186L11.0459 25.6907V25.6922C11.4164 27.0631 11.7929 28.294 12.2373 29.6554C12.2691 29.7511 12.268 29.8547 12.2342 29.9498H12.518C12.4845 29.8567 12.4829 29.7514 12.5149 29.6522Z" fill="black"/>
<path d="M14.5866 21.5804C14.7681 20.357 14.8399 19.2678 14.8078 18.2793C14.7788 18.293 14.7468 18.3083 14.7132 18.3235L12.3762 19.4188C11.0353 18.7919 10.3168 18.4547 9.94002 18.2793C9.90797 19.2709 9.97974 20.36 10.1613 21.5819L12.3747 19.7849L14.5866 21.5804Z" fill="black"/>
<path d="M18.2034 21.9276L17.3644 21.1954L17.5627 21.081C18.0223 20.8169 18.0602 20.1716 17.6421 19.8499L15.4064 18.1471C15.3171 17.7029 15.2632 17.1518 15.2485 16.5065C15.9065 15.5523 16.442 14.4597 16.6795 13.5771H16.681C17.1935 13.5771 17.6939 13.0707 17.8632 12.3491C17.9961 11.7741 17.8924 11.0399 17.4025 10.7458C17.4559 10.5537 17.5062 10.3645 17.5505 10.1723C18.2339 7.25559 17.4086 5.44633 14.8763 4.3068C13.5827 3.72408 11.7445 3.39455 10.3381 5.13209C10.3259 5.14732 10.3152 5.16109 10.306 5.17328C10.2786 5.16871 10.2435 5.16109 10.2114 5.155C8.55932 4.83162 7.50674 5.45553 7.08264 7.00844C6.82635 7.94963 7.03999 9.6185 7.34655 10.7489C6.8536 11.0447 6.74801 11.7573 6.88741 12.3507C7.05674 13.0661 7.55708 13.5726 8.06661 13.5756C8.30549 14.4597 8.84122 15.5525 9.49928 16.5068C9.48522 17.1537 9.43214 17.7029 9.34383 18.1451L7.11012 19.8483C6.68602 20.1688 6.72815 20.8177 7.18641 21.0809L7.38628 21.1953L6.54727 21.9276C6.2635 22.1732 6.21012 22.5927 6.42065 22.9039L11.1557 29.8829C11.1697 29.9036 11.1886 29.9206 11.2106 29.9323C11.2327 29.944 11.2573 29.9501 11.2823 29.9501H11.8025C11.8266 29.9501 11.8504 29.9445 11.8719 29.9336C11.8934 29.9227 11.912 29.9068 11.9262 29.8873C11.9403 29.8677 11.9496 29.8451 11.9533 29.8213C11.957 29.7975 11.955 29.7731 11.9474 29.7502C10.8139 26.272 9.51118 21.857 9.63604 18.2485C9.71491 17.8698 9.76753 17.4214 9.79173 16.8983C10.3133 17.4958 11.0707 17.8469 11.865 17.8469H12.8825C13.6763 17.8469 14.4321 17.4961 14.9545 16.8993C14.9774 17.3769 15.0268 17.8349 15.1113 18.2398C15.2378 21.822 13.9389 26.27 12.8047 29.7502C12.7733 29.8444 12.8405 29.9501 12.9496 29.9501H13.4682C13.5186 29.9501 13.5659 29.9256 13.5933 29.8829L18.3299 22.9039C18.5421 22.5912 18.4872 22.1717 18.2034 21.9276ZM14.8687 16.5183C14.408 17.159 13.6651 17.5419 12.8825 17.5419H11.8651C11.0999 17.5419 10.3574 17.1993 9.80649 16.4153V16.4147L9.80579 16.4143C9.1101 15.4249 8.54725 14.2722 8.33057 13.3774C8.32253 13.3443 8.30356 13.3148 8.27671 13.2938C8.24987 13.2727 8.21673 13.2613 8.18262 13.2614C8.17348 13.2614 8.16428 13.2614 8.15514 13.263C7.76315 13.3362 7.32985 12.8954 7.18495 12.2806C7.0476 11.6963 7.21085 11.2509 7.43661 11.0602C7.55315 11.4158 7.71464 11.8744 8.12614 11.8794H8.13223C8.54561 11.8794 8.60971 11.4324 8.65548 11.1075L8.65852 11.0877C8.7869 10.2043 9.13635 9.54895 8.89653 8.72471C8.88124 8.67133 8.90567 8.6149 8.95448 8.59504C9.53567 8.36623 10.0712 7.99856 10.4617 7.56074C10.4719 7.54922 10.4843 7.53989 10.4982 7.53333C10.5121 7.52677 10.5272 7.52312 10.5425 7.5226C10.5715 7.52412 10.6051 7.53631 10.628 7.56074C11.6073 8.59656 14.0572 9.34557 15.5201 8.74146C15.59 8.71041 15.6621 8.7758 15.6621 8.85438C15.6285 9.74271 15.9586 10.2944 16.2158 11.3134C16.2737 11.5407 16.5117 11.7207 16.7604 11.7238C16.9892 11.7253 17.1723 11.5773 17.2424 11.3271C17.2723 11.2204 17.3098 11.0877 17.3157 11.0602C17.5766 11.2875 17.6803 11.7832 17.5659 12.2806C17.4209 12.8984 16.9862 13.3408 16.5926 13.2645C16.5543 13.2573 16.5146 13.2649 16.4817 13.2859C16.4489 13.3069 16.4252 13.3396 16.4156 13.3774C16.1913 14.3033 15.5994 15.5069 14.8687 16.5183ZM24.3419 0.0507812C21.2467 0.0507812 18.7297 2.0415 18.7297 4.4899C18.7297 5.73619 19.3887 6.92148 20.545 7.76055C20.2017 8.36465 19.7243 8.92141 19.1263 9.4157C18.989 9.52703 18.9432 9.71166 19.0103 9.87484C19.0743 10.0263 19.2284 10.1319 19.4191 10.1128C20.3512 10.0197 21.747 9.71922 23.123 8.82379C23.5181 8.89393 23.9285 8.92902 24.3419 8.92902C27.4341 8.92902 29.9496 6.93824 29.9496 4.4899C29.9496 2.04156 27.434 0.0507812 24.3419 0.0507812ZM25.1512 6.96988C25.1512 7.45943 24.753 7.85764 24.2634 7.85764C23.774 7.85764 23.3757 7.45943 23.3757 6.96988V4.39668C23.3757 3.90713 23.7739 3.50887 24.2634 3.50887C24.753 3.50887 25.1512 3.90713 25.1512 4.39668V6.96988ZM24.2617 2.98709C23.7485 2.98709 23.331 2.56961 23.331 2.05639C23.331 1.54129 23.7485 1.12229 24.2617 1.12229C24.7768 1.12229 25.1959 1.54135 25.1959 2.05639C25.1959 2.56961 24.7768 2.98709 24.2617 2.98709Z" fill="black"/>
</g>
<defs>
<clipPath id="clip0_2100_1208">
<rect width="30" height="30" fill="white"/>
</clipPath>
</defs>
</svg>
