<svg width="30" height="30" viewBox="0 0 30 30" fill="none" xmlns="http://www.w3.org/2000/svg">
<g clip-path="url(#clip0_2100_1251)">
<path d="M0.527344 1.58862V16.4714C4.65234 15.405 8.56641 14.8015 12.457 14.6199C12.5508 13.5535 13.3008 12.6921 14.4316 12.616C16.2012 11.2566 18.75 12.5339 18.9375 14.696C22.3828 14.9539 25.8398 15.5281 29.4727 16.4656V1.58276C19.7344 -0.450439 10.2656 -0.450439 0.527344 1.58862ZM12.2051 8.47925C12.2051 8.79565 11.9414 9.06519 11.6191 9.05933L10.7871 9.05347C10.7461 9.1648 10.6992 9.27612 10.6465 9.38159L11.2266 9.97339C11.4492 10.1902 11.4492 10.5828 11.2207 10.7996L10.3359 11.6785C10.1191 11.9011 9.7207 11.9011 9.50391 11.6726L8.92383 11.0867C8.8125 11.1335 8.70117 11.1804 8.5957 11.2214L8.58984 12.0476C8.58398 12.3757 8.32031 12.6335 7.99805 12.6277L6.75586 12.6218C6.43945 12.6277 6.16406 12.3464 6.16992 12.03L6.17578 11.2039C6.06445 11.1628 5.95313 11.116 5.84766 11.0632L5.25586 11.6492C5.03906 11.8718 4.64062 11.8718 4.42969 11.6433L3.55664 10.7585C3.32813 10.53 3.32813 10.1609 3.55664 9.93237L4.14844 9.34644C4.10156 9.24097 4.05469 9.12964 4.01367 9.01831L3.19922 9.02417C2.88281 9.02417 2.61328 8.75464 2.61914 8.43823L2.625 7.19019C2.625 6.86792 2.88867 6.60425 3.21094 6.61011L4.03711 6.61597C4.07813 6.50464 4.125 6.39331 4.17773 6.28784L3.59766 5.70191C3.36914 5.47339 3.375 5.10425 3.59766 4.87573L4.48828 3.99683C4.70508 3.76831 5.09766 3.76831 5.31445 4.00269L5.89453 4.58862C6 4.53589 6.11133 4.49487 6.22266 4.45386L6.22852 3.62769C6.22266 3.31128 6.50391 3.03589 6.82031 3.04175L8.0625 3.04761C8.38477 3.04761 8.64844 3.31128 8.64844 3.63355L8.63672 4.45386C8.74805 4.49487 8.85938 4.54175 8.96484 4.59448L9.55078 4.01441C9.78516 3.78589 10.1543 3.79175 10.3828 4.02026L11.2559 4.90503C11.3104 4.95926 11.3536 5.02385 11.3829 5.09499C11.4122 5.16613 11.4271 5.24241 11.4265 5.31935C11.426 5.39629 11.4101 5.47234 11.3798 5.54306C11.3495 5.61379 11.3053 5.67775 11.25 5.7312L10.6582 6.31128C10.7109 6.42261 10.752 6.53394 10.7988 6.63941L11.625 6.64526C11.9414 6.64526 12.2051 6.90894 12.2051 7.2312V8.47925ZM27.6855 5.11011C27.6797 5.30347 27.5156 5.44995 27.3281 5.43823L25.4414 5.3562C25.2539 5.35034 25.1016 5.18628 25.1133 4.99878L25.1367 4.40112L23.5254 4.33667L23.3906 7.50659L25.0137 7.57105L25.0371 6.97339C25.043 6.78589 25.2129 6.63355 25.3945 6.64526L27.2813 6.7273C27.4629 6.73316 27.6211 6.89722 27.6094 7.08472L27.5273 8.97144C27.5215 9.1648 27.3574 9.31128 27.1699 9.29956L25.2832 9.21753C25.0957 9.21167 24.9434 9.04175 24.9551 8.86011L24.9785 8.26245L23.3613 8.198L23.2324 11.3679L24.8203 11.4324L24.873 10.0613C24.8789 9.96753 24.9199 9.87964 24.9844 9.82105C25.0547 9.75659 25.1309 9.7273 25.2305 9.73316L27.1172 9.81519C27.3047 9.82105 27.457 9.98511 27.4453 10.1726L27.3633 12.0593C27.3633 12.241 27.1875 12.3992 27.0059 12.3875L25.1191 12.3054C24.9961 12.2996 24.8906 12.2234 24.8379 12.1238L22.8516 12.0417C22.6641 12.0359 22.5117 11.8718 22.5234 11.6843L22.6699 8.1687L20.8418 8.09253L20.8125 8.69019C20.8066 8.88355 20.6426 9.03003 20.4551 9.01831L18.5684 8.93628C18.3809 8.93042 18.2285 8.76636 18.2402 8.57886L18.3223 6.69214C18.334 6.49878 18.4922 6.3523 18.6797 6.36401L20.5664 6.44605C20.7598 6.45191 20.9063 6.61597 20.8945 6.80347L20.8711 7.40112L22.6992 7.4773L22.8457 3.96167C22.8516 3.77417 23.0156 3.62769 23.2031 3.63355L25.166 3.71558L25.1895 3.11792C25.2012 2.93042 25.3594 2.77808 25.5469 2.7898L27.4336 2.87183C27.6211 2.87769 27.7734 3.04175 27.7617 3.22925L27.6855 5.11011ZM10.2187 7.073C10.1895 6.70972 9.7207 6.33472 10.0078 6.00073L10.7051 5.30933L9.9668 4.57105L9.27539 5.26245C8.94727 5.54956 8.55469 5.06909 8.20312 5.0398C8.05664 4.99878 7.95117 4.85816 7.95117 4.70581L7.95703 3.73316L6.91406 3.72144V4.69995C6.9082 4.8523 6.80859 4.98706 6.65625 5.02808C6.28711 5.05737 5.90625 5.53198 5.58398 5.23901L4.89258 4.54175L4.1543 5.28003L4.83984 5.97144C5.13281 6.31128 4.64648 6.68042 4.61719 7.0437C4.57617 7.19605 4.43555 7.30151 4.2832 7.30151L3.31055 7.29566L3.30469 8.33276L4.2832 8.33862C4.43555 8.33862 4.57031 8.44409 4.61133 8.59644C4.64062 8.95972 5.11523 9.33472 4.82227 9.6687L4.13086 10.3542L4.86328 11.0925L5.55469 10.407C5.88867 10.114 6.27539 10.6003 6.62695 10.6296C6.7793 10.6707 6.88477 10.8113 6.88477 10.9636L6.87891 11.9421L7.91602 11.948L7.92187 10.9753C7.95117 10.5359 8.56055 10.6062 8.83594 10.3718C8.9707 10.2957 9.14062 10.3191 9.25195 10.4304L9.94336 11.1218L10.6816 10.3894L9.99023 9.698C9.70312 9.36987 10.1836 8.98315 10.2129 8.62573C10.2539 8.47925 10.3945 8.37378 10.5469 8.37378L11.5195 8.37964L11.5254 7.34253L10.5469 7.33667C10.3945 7.33081 10.2598 7.22534 10.2187 7.073ZM7.41211 10.2019C6.10547 10.2019 5.03906 9.14136 5.03906 7.82886C5.15039 4.69409 9.66797 4.69409 9.7793 7.82886C9.78516 9.14136 8.71875 10.2019 7.41211 10.2019ZM9.09375 7.83472C9.02344 10.0554 5.80078 10.0554 5.73047 7.83472C5.80664 5.61401 9.02344 5.61401 9.09375 7.83472ZM13.002 16.7937C13.0723 16.905 13.1543 17.0164 13.207 17.1394C13.0664 17.1746 12.9727 16.9226 13.002 16.7937ZM16.9512 18.1941C16.1191 18.5457 15.1641 18.5457 14.3438 18.1941C14.1563 17.4792 13.8223 16.782 13.4414 16.1667C13.0723 15.4636 12.9668 14.3445 13.5117 13.7527C13.8164 13.407 14.2617 13.3132 14.5781 13.2957C14.6484 13.2898 14.7187 13.2664 14.7773 13.2195C16.3887 11.9363 18.5449 13.4363 18.252 15.3992V15.405C18.2051 15.9617 17.8945 16.4656 17.5605 16.8992V16.905C17.5605 16.9109 17.5488 16.9109 17.5488 16.9167C17.291 17.2976 17.0801 17.7488 16.9512 18.1941ZM16.6641 19.0203L16.8105 19.5769C16.2949 19.9519 15.252 20.0046 14.6543 19.571L14.7773 19.0554C15.3984 19.1902 16.0488 19.1726 16.6641 19.0203ZM21.375 25.5769L21.3633 27.9031C21.3574 28.6414 21.2812 29.4441 20.7598 29.7605C20.3848 30.0066 19.6289 29.9304 19.125 29.9421V28.073C19.125 27.8855 18.9727 27.7273 18.7793 27.7273C18.5859 27.7273 18.4336 27.8796 18.4336 28.073V29.9421H13.0254V28.073C13.0254 27.8855 12.873 27.7273 12.6797 27.7273C12.4863 27.7273 12.334 27.8796 12.334 28.073V29.9421C11.8184 29.9187 11.1621 30.0242 10.6992 29.7605C10.1777 29.4441 10.1016 28.6414 10.1016 27.9031L10.0898 25.5417C9.95508 22.2781 10.8281 20.7488 14.1797 20.0925C15.082 20.7371 16.3711 20.7371 17.2734 20.0925C20.6602 20.7488 21.5098 22.2957 21.375 25.5769ZM26.6953 11.6843L25.4941 11.6316L25.5469 10.4363L26.7422 10.4832L26.6953 11.6843ZM25.8691 3.49292L27.0645 3.54566L27.0176 4.74097L25.8223 4.68823L25.8691 3.49292ZM26.8535 8.59644L25.6582 8.5437L25.7051 7.34839L26.9063 7.39526L26.8535 8.59644ZM18.9961 7.073L20.1914 7.11987L20.1445 8.32105L18.9434 8.26831L18.9961 7.073Z" fill="black"/>
</g>
<defs>
<clipPath id="clip0_2100_1251">
<rect width="30" height="30" fill="white"/>
</clipPath>
</defs>
</svg>
