<svg width="24" height="24" viewBox="0 0 24 24" fill="none" xmlns="http://www.w3.org/2000/svg">
<g clip-path="url(#clip0_128_2)">
<path d="M19.3665 7.593C19.0388 5.87937 18.1239 4.33361 16.7794 3.22182C15.4348 2.11004 13.7447 1.50179 12 1.50179C10.2553 1.50179 8.56524 2.11004 7.22068 3.22182C5.87612 4.33361 4.96123 5.87937 4.63352 7.593C3.24929 7.83938 2.00762 8.59549 1.15338 9.71221C0.299137 10.8289 -0.105671 12.2252 0.018785 13.6257C0.143241 15.0261 0.787928 16.3291 1.82571 17.2777C2.86349 18.2263 4.21903 18.7516 5.62502 18.75H6.00002V17.25H5.62502C4.55443 17.2528 3.52477 16.8389 2.7539 16.096C1.98304 15.3531 1.53146 14.3394 1.49472 13.2695C1.45799 12.1995 1.83897 11.1572 2.55707 10.3632C3.27516 9.56915 4.27401 9.08565 5.34227 9.015L5.96927 8.97225L6.03676 8.3475C6.19681 6.87772 6.89402 5.51882 7.99459 4.53159C9.09516 3.54435 10.5215 2.99835 12 2.99835C13.4785 2.99835 14.9049 3.54435 16.0054 4.53159C17.106 5.51882 17.8032 6.87772 17.9633 8.3475L18.0308 8.97225L18.6578 9.01575C19.7239 9.08921 20.7198 9.57382 21.4355 10.3674C22.1511 11.161 22.5307 12.2015 22.494 13.2695C22.4573 14.3375 22.0073 15.3495 21.2389 16.0921C20.4704 16.8347 19.4436 17.2498 18.375 17.25H18V18.75H18.375C19.781 18.7516 21.1365 18.2263 22.1743 17.2777C23.2121 16.3291 23.8568 15.0261 23.9812 13.6257C24.1057 12.2252 23.7009 10.8289 22.8467 9.71221C21.9924 8.59549 20.7507 7.83938 19.3665 7.593Z" fill="black"/>
<path d="M17.25 16.5V15H15.6743C15.577 14.5307 15.3906 14.0844 15.1252 13.6852L16.2427 12.5677L15.1823 11.5073L14.0648 12.6248C13.6656 12.3594 13.2193 12.173 12.75 12.0757V10.5H11.25V12.0757C10.7807 12.173 10.3344 12.3594 9.93525 12.6248L8.81775 11.5073L7.75725 12.5677L8.87475 13.6852C8.60941 14.0844 8.42305 14.5307 8.32575 15H6.75V16.5H8.32575C8.42305 16.9693 8.60941 17.4156 8.87475 17.8148L7.75725 18.9323L8.81775 19.9927L9.93525 18.8752C10.3344 19.1406 10.7807 19.327 11.25 19.4243V21H12.75V19.4243C13.2193 19.327 13.6656 19.1406 14.0648 18.8752L15.1823 19.9927L16.2427 18.9323L15.1252 17.8148C15.3906 17.4156 15.577 16.9693 15.6743 16.5H17.25ZM12 18C11.555 18 11.12 17.868 10.75 17.6208C10.38 17.3736 10.0916 17.0222 9.92127 16.611C9.75097 16.1999 9.70642 15.7475 9.79323 15.311C9.88005 14.8746 10.0943 14.4737 10.409 14.159C10.7237 13.8443 11.1246 13.63 11.561 13.5432C11.9975 13.4564 12.4499 13.501 12.861 13.6713C13.2722 13.8416 13.6236 14.13 13.8708 14.5C14.118 14.87 14.25 15.305 14.25 15.75C14.2494 16.3466 14.0122 16.9185 13.5903 17.3403C13.1685 17.7622 12.5966 17.9994 12 18Z" fill="black"/>
</g>
<defs>
<clipPath id="clip0_128_2">
<rect width="24" height="24" fill="white"/>
</clipPath>
</defs>
</svg>
