<svg width="30" height="30" viewBox="0 0 30 30" fill="none" xmlns="http://www.w3.org/2000/svg">
<g clip-path="url(#clip0_2100_1197)">
<path d="M15 12.1074C17.8154 12.1074 20.0977 9.82512 20.0977 7.00977C20.0977 4.19441 17.8154 1.91211 15 1.91211C12.1846 1.91211 9.90234 4.19441 9.90234 7.00977C9.90234 9.82512 12.1846 12.1074 15 12.1074Z" fill="black"/>
<path d="M25.3125 12.1074C27.0923 12.1074 28.5352 10.6646 28.5352 8.88477C28.5352 7.10494 27.0923 5.66211 25.3125 5.66211C23.5327 5.66211 22.0898 7.10494 22.0898 8.88477C22.0898 10.6646 23.5327 12.1074 25.3125 12.1074Z" fill="black"/>
<path d="M4.6875 12.1074C6.46732 12.1074 7.91016 10.6646 7.91016 8.88477C7.91016 7.10494 6.46732 5.66211 4.6875 5.66211C2.90768 5.66211 1.46484 7.10494 1.46484 8.88477C1.46484 10.6646 2.90768 12.1074 4.6875 12.1074Z" fill="black"/>
<path d="M7.8627 15.0015C6.59414 13.9622 5.44529 14.0998 3.97852 14.0998C1.78477 14.0998 0 15.874 0 18.0543V24.4533C0 25.4002 0.772852 26.1701 1.72324 26.1701C5.82633 26.1701 5.33203 26.2443 5.33203 25.9931C5.33203 21.4588 4.79496 18.1335 7.8627 15.0015Z" fill="black"/>
<path d="M16.395 14.1238C13.8331 13.9101 11.6062 14.1263 9.68547 15.7117C6.4712 18.2863 7.08977 21.7529 7.08977 25.9937C7.08977 27.1158 8.00266 28.0457 9.14172 28.0457C21.5098 28.0457 22.0021 28.4447 22.7355 26.8205C22.976 26.2712 22.9101 26.4458 22.9101 21.1914C22.9101 17.018 19.2964 14.1238 16.395 14.1238ZM26.0214 14.1004C24.5466 14.1004 23.4041 13.9642 22.1372 15.0021C25.1821 18.1109 24.6679 21.2093 24.6679 25.9937C24.6679 26.2465 24.2576 26.1707 28.2152 26.1707C29.1995 26.1707 29.9999 25.3732 29.9999 24.393V18.0549C29.9999 15.8746 28.2152 14.1004 26.0214 14.1004Z" fill="black"/>
</g>
<defs>
<clipPath id="clip0_2100_1197">
<rect width="30" height="30" fill="white"/>
</clipPath>
</defs>
</svg>
