<svg width="30" height="30" viewBox="0 0 30 30" fill="none" xmlns="http://www.w3.org/2000/svg">
<g clip-path="url(#clip0_2100_1213)">
<path d="M26.25 15.4527H30V24.198H26.25V15.4527ZM26.25 10.8237H30V13.6948H26.25V10.8237ZM26.25 27.7383L28.125 29.6133L30 27.7383V25.9558H26.25V27.7383ZM17.7538 0.878906V4.74609H21.6211L17.7538 0.878906ZM4.62891 4.62891H6.62109V6.62109H4.62891V4.62891Z" fill="black"/>
<path d="M15.996 0H0V30H22.4999V6.50391H15.996V0ZM2.87109 2.87109H8.37891V8.37891H2.87109V2.87109ZM14.1227 10.3711V12.1289H6.56637V10.3711H14.1227ZM6.56637 17.8711H14.1209V19.6289H6.56637V17.8711ZM4.68363 27.129H2.81637V25.3712H4.68357L4.68363 27.129ZM4.68363 19.6289H2.81637V17.8711H4.68357L4.68363 19.6289ZM4.68363 12.1289H2.81637V10.3711H4.68357L4.68363 12.1289ZM14.1209 27.1289H6.56637V25.3711H14.1209V27.1289ZM19.6874 23.3789H6.56637V21.6211H19.6874V23.3789ZM19.6874 14.1211V15.8789H6.56637V14.1211H19.6874Z" fill="black"/>
</g>
<defs>
<clipPath id="clip0_2100_1213">
<rect width="30" height="30" fill="white"/>
</clipPath>
</defs>
</svg>
