<svg width="30" height="30" viewBox="0 0 30 30" fill="none" xmlns="http://www.w3.org/2000/svg">
<path d="M25.6554 2.53113C25.1578 2.0325 24.4961 1.75781 23.792 1.75781H22.6233V2.92969C22.6233 4.22203 21.5731 5.27344 20.2822 5.27344H9.74701C8.45608 5.27344 7.40584 4.22203 7.40584 2.92969V1.75781H6.23332C4.78266 1.75781 3.60117 2.9393 3.59953 4.3916L3.57422 27.3604C3.5734 28.0652 3.84703 28.728 4.34455 29.2267C4.84219 29.7254 5.50395 30 6.20801 30H23.7666C25.2173 30 26.3988 28.8185 26.4004 27.3662L26.4258 4.39746C26.4266 3.69264 26.153 3.02982 25.6554 2.53113ZM15.2985 10.5469H21.536C22.0208 10.5469 22.4139 10.9404 22.4139 11.4258C22.4139 11.9112 22.0208 12.3047 21.536 12.3047H15.2985C14.8136 12.3047 14.4206 11.9112 14.4206 11.4258C14.4206 10.9404 14.8136 10.5469 15.2985 10.5469ZM15.2985 16.4062H21.536C22.0208 16.4062 22.4139 16.7998 22.4139 17.2852C22.4139 17.7705 22.0208 18.1641 21.536 18.1641H15.2985C14.8136 18.1641 14.4206 17.7705 14.4206 17.2852C14.4206 16.7998 14.8136 16.4062 15.2985 16.4062ZM15.2985 22.2656H21.561C22.0459 22.2656 22.4389 22.6591 22.4389 23.1445C22.4389 23.6299 22.0459 24.0234 21.561 24.0234H15.2985C14.8136 24.0234 14.4206 23.6299 14.4206 23.1445C14.4206 22.6591 14.8136 22.2656 15.2985 22.2656ZM7.81822 10.5816C8.16112 10.2383 8.71694 10.2383 9.05983 10.5816L9.53719 11.0595L11.5618 9.03264C11.9047 8.68945 12.4605 8.68934 12.8034 9.03264C13.1462 9.37582 13.1462 9.93234 12.8034 10.2756L10.1579 12.9239C10.0765 13.0055 9.97968 13.0703 9.87316 13.1144C9.76664 13.1586 9.65245 13.1813 9.53713 13.1813C9.42181 13.1813 9.30762 13.1586 9.2011 13.1144C9.09458 13.0703 8.99781 13.0055 8.91633 12.9239L7.81817 11.8245C7.47533 11.4813 7.47533 10.9247 7.81822 10.5816ZM7.81822 16.8884C8.16112 16.5452 8.71694 16.5452 9.05983 16.8884L9.53719 17.3663L11.5618 15.3394C11.9047 14.9962 12.4605 14.9962 12.8034 15.3394C13.1462 15.6826 13.1462 16.2391 12.8034 16.5824L10.1579 19.2308C10.0764 19.3124 9.97967 19.3771 9.87315 19.4212C9.76663 19.4654 9.65244 19.4881 9.53713 19.4881C9.42182 19.4881 9.30763 19.4654 9.20111 19.4212C9.09459 19.3771 8.99782 19.3124 8.91633 19.2308L7.81817 18.1313C7.47533 17.7881 7.47533 17.2317 7.81822 16.8884ZM7.81822 22.7478C8.16112 22.4046 8.71694 22.4046 9.05983 22.7478L9.53719 23.2257L11.5618 21.1988C11.9047 20.8556 12.4605 20.8556 12.8034 21.1988C13.1462 21.542 13.1462 22.0985 12.8034 22.4418L10.1579 25.0901C10.0764 25.1717 9.97967 25.2365 9.87315 25.2806C9.76663 25.3248 9.65244 25.3475 9.53713 25.3475C9.42182 25.3475 9.30763 25.3248 9.20111 25.2806C9.09459 25.2365 8.99782 25.1717 8.91633 25.0901L7.81817 23.9907C7.47533 23.6475 7.47533 23.091 7.81822 22.7478Z" fill="black"/>
<path d="M9.16162 2.92969C9.16162 3.2533 9.42365 3.51562 9.74691 3.51562H20.2821C20.6053 3.51562 20.8674 3.2533 20.8674 2.92969V0.585938C20.8674 0.262324 20.6053 0 20.2821 0H9.74691C9.42365 0 9.16162 0.262324 9.16162 0.585938V2.92969Z" fill="black"/>
</svg>
