<svg width="30" height="30" viewBox="0 0 30 30" fill="none" xmlns="http://www.w3.org/2000/svg">
<path d="M4.02393 27.6755C4.45441 29.0226 5.70316 29.9997 7.1734 29.9997H22.8263C24.2965 29.9997 25.5452 29.0226 25.9757 27.6755H4.02393ZM25.1671 4.8199L21.3168 0.96959C21.16 0.812718 20.988 0.671775 20.8034 0.548828V5.31221C20.8036 5.36434 20.8244 5.41429 20.8613 5.4511C20.8982 5.48791 20.9482 5.50857 21.0004 5.50855H25.6963C25.5534 5.25941 25.3758 5.02855 25.1671 4.8199Z" fill="black"/>
<path d="M26.1365 7.26697H21.0004C19.9221 7.26697 19.0453 6.39023 19.0453 5.31252V0.00117188C19.0225 0 18.999 0 18.9762 0H7.17324C5.34828 0 3.86328 1.48506 3.86328 3.31055V12.3397H26.1365L26.1365 7.26697ZM15.0184 17.9095C14.4823 17.9095 14.2144 18.2108 14.2144 18.8129V21.2067C14.2144 21.8089 14.4823 22.11 15.0184 22.11C15.5604 22.11 15.8313 21.8089 15.8313 21.2067V18.8129C15.8313 18.2108 15.5603 17.9095 15.0184 17.9095Z" fill="black"/>
<path d="M26.2509 14.0977H3.74883C2.52416 14.0977 1.52783 15.094 1.52783 16.3187V23.6963C1.52783 24.921 2.52416 25.9173 3.74883 25.9173H26.2508C27.4755 25.9173 28.4719 24.921 28.4719 23.6963V16.3187C28.4719 15.094 27.4755 14.0977 26.2509 14.0977ZM11.9832 21.1521C11.9832 21.8869 11.7814 22.4258 11.378 22.769C10.9745 23.1122 10.4355 23.2839 9.76113 23.2839H8.16228C7.98158 23.2839 7.83399 23.2419 7.71967 23.1575C7.60524 23.0732 7.54799 22.9738 7.54799 22.8594V17.1053C7.54799 16.991 7.60518 16.8916 7.71967 16.8072C7.83399 16.7229 7.98164 16.6808 8.16228 16.6808H9.76113C10.4355 16.6808 10.9746 16.8524 11.378 17.1957C11.7814 17.5389 11.9832 18.078 11.9832 18.8126V21.1521ZM17.2405 21.2063C17.2405 21.9411 17.0387 22.48 16.6353 22.8232C16.2318 23.1664 15.6928 23.3381 15.0184 23.3381C14.35 23.3381 13.8139 23.1664 13.4105 22.8232C13.007 22.48 12.8053 21.9411 12.8053 21.2063V18.8125C12.8053 18.0779 13.007 17.5389 13.4105 17.1956C13.8139 16.8524 14.35 16.6807 15.0184 16.6807C15.6928 16.6807 16.2318 16.8524 16.6353 17.1956C17.0387 17.5389 17.2405 18.0779 17.2405 18.8125V21.2063ZM20.3026 22.1096C20.4712 22.1096 20.6112 22.0826 20.7226 22.0284C20.8339 21.9742 20.9137 21.8915 20.962 21.7799C21.0101 21.6686 21.0417 21.5767 21.0568 21.5044C21.0718 21.4322 21.0853 21.3328 21.0974 21.2064C21.1215 20.9234 21.3534 20.7818 21.793 20.7818C22.0519 20.7818 22.2356 20.8285 22.344 20.9218C22.4524 21.0152 22.5066 21.1914 22.5066 21.4502C22.5066 22.0344 22.2943 22.4951 21.8697 22.8323C21.4452 23.1696 20.9016 23.3382 20.2393 23.3382C19.5948 23.3382 19.0724 23.1665 18.672 22.8233C18.2715 22.48 18.0713 21.9411 18.0713 21.2064V18.8126C18.0713 18.0779 18.2715 17.5389 18.672 17.1957C19.0724 16.8524 19.5948 16.6808 20.2393 16.6808C20.9016 16.6808 21.4452 16.8404 21.8697 17.1595C22.2943 17.4788 22.5066 17.9183 22.5066 18.4784C22.5066 18.7373 22.4524 18.9135 22.344 19.0068C22.2356 19.1002 22.055 19.1468 21.802 19.1468C21.3504 19.1468 21.1155 19.0054 21.0974 18.7222C21.0794 18.1802 20.8114 17.9092 20.2935 17.9092C19.7515 17.9092 19.4805 18.2105 19.4805 18.8126V21.2064C19.4806 21.8085 19.7545 22.1096 20.3026 22.1096Z" fill="black"/>
<path d="M9.761 17.9102H8.95703V22.0564H9.761C10.303 22.0564 10.574 21.7553 10.574 21.153V18.8135C10.574 18.2114 10.303 17.9102 9.761 17.9102Z" fill="black"/>
</svg>
