<svg width="30" height="30" viewBox="0 0 30 30" fill="none" xmlns="http://www.w3.org/2000/svg">
<g clip-path="url(#clip0_2100_1217)">
<path d="M11.2501 0.9375C9.75868 0.939844 8.329 1.53348 7.27454 2.58827C6.22009 3.64306 5.6269 5.07292 5.62502 6.56438C5.62502 6.92935 5.65692 7.30672 5.70829 7.68763C5.95279 7.54767 6.215 7.59196 6.49315 7.59905C6.70753 7.28028 6.99682 7.01895 7.33565 6.83795C7.67449 6.65695 8.05254 6.5618 8.43669 6.56084H10.3147C11.0942 6.56084 11.2997 5.79547 11.2997 5.79547C11.3627 5.60952 11.4824 5.44799 11.6419 5.33358C11.8014 5.21917 11.9928 5.15764 12.1891 5.15764C12.3854 5.15764 12.5768 5.21917 12.7364 5.33358C12.8959 5.44799 13.0156 5.60952 13.0785 5.79547C13.0785 5.79547 13.2823 6.56084 14.06 6.56084C14.8644 6.56084 15.5801 6.97364 16.0036 7.59728C16.2994 7.52818 16.5351 7.60436 16.792 7.68763C16.8451 7.30672 16.8735 6.92935 16.8735 6.56438C16.8721 5.07339 16.2795 3.64379 15.2257 2.589C14.1719 1.53422 12.7411 0.940313 11.2501 0.9375ZM12.1891 6.09311C12.1891 6.09311 11.7196 7.49806 10.3147 7.49806H8.43847C8.06563 7.50039 7.70872 7.64953 7.44508 7.91317C7.18144 8.17681 7.0323 8.53372 7.02997 8.90655V10.7828C7.0618 11.8809 7.52037 12.9233 8.30833 13.6888C9.0963 14.4542 10.1516 14.8824 11.2501 14.8824C12.3487 14.8824 13.404 14.4542 14.1919 13.6888C14.9799 12.9233 15.4385 11.8809 15.4703 10.7828V8.90655C15.468 8.53372 15.3188 8.17681 15.0552 7.91317C14.7916 7.64953 14.4346 7.50039 14.0618 7.49806C12.6569 7.49806 12.1891 6.09311 12.1891 6.09311ZM16.3739 8.52564C16.3951 8.64966 16.4075 8.77722 16.4075 8.90655V10.7828C16.4075 11.1247 16.3721 11.4596 16.3065 11.7855C16.9089 11.3887 17.3447 10.719 17.3447 9.84378V9.82606C17.3304 9.53737 17.2304 9.25948 17.0575 9.02786C16.8846 8.79625 16.6466 8.6214 16.3739 8.52564ZM6.12641 8.52564C5.85362 8.6216 5.61567 8.79678 5.44302 9.02876C5.27038 9.26075 5.17089 9.53898 5.1573 9.82783V9.84555C5.1573 10.7172 5.59313 11.3869 6.19196 11.782C6.12627 11.453 6.09304 11.1183 6.09275 10.7828V8.90655C6.09275 8.77722 6.10515 8.65143 6.12641 8.52564ZM9.22687 15.5132L11.2519 17.2016L13.2752 15.515C12.6364 15.7939 11.9469 15.9377 11.25 15.9374C10.553 15.9371 9.86358 15.7927 9.2251 15.5132H9.22687ZM6.86875 15.9455C6.63489 15.9508 6.40634 15.9703 6.17956 16.0022L5.66046 18.5941L6.89355 19.8219C6.95046 19.8796 6.99146 19.9511 7.01257 20.0293C7.03368 20.1075 7.03418 20.1899 7.01403 20.2684L6.60123 21.9178L10.0578 26.3205C8.99123 22.8657 7.93176 19.3967 6.86875 15.9455ZM15.6315 15.9455L12.4389 26.3152L15.8937 21.9196L15.4827 20.2684C15.463 20.1896 15.4641 20.107 15.4858 20.0288C15.5075 19.9505 15.5492 19.8793 15.6067 19.8219L16.8345 18.5941L16.3154 16.0022C16.0893 15.9706 15.8615 15.9516 15.6333 15.9455H15.6315ZM8.46504 16.1014L8.03098 16.5354L8.78572 18.9928L10.4812 17.7809L8.46504 16.1014ZM14.0317 16.1014L12.0155 17.7809L13.7128 18.9945L14.4675 16.5372L14.0317 16.1014ZM5.1821 16.2219C3.94896 16.6132 2.87246 17.3871 2.1086 18.4312C1.34474 19.4754 0.93319 20.7357 0.933594 22.0295V28.59C0.933594 28.8504 1.14442 29.0613 1.40486 29.0613H4.2183V24.8447C4.2183 24.783 4.23045 24.722 4.25404 24.665C4.27764 24.608 4.31222 24.5563 4.35582 24.5127C4.39941 24.4691 4.45117 24.4345 4.50813 24.4109C4.56509 24.3873 4.62615 24.3752 4.6878 24.3752C4.74946 24.3752 4.81051 24.3873 4.86747 24.4109C4.92443 24.4345 4.97619 24.4691 5.01979 24.5127C5.06338 24.5563 5.09797 24.608 5.12156 24.665C5.14516 24.722 5.1573 24.783 5.1573 24.8447V29.0613H11.1367C11.0753 29.0456 11.0177 29.0175 10.9675 28.9788C10.9172 28.9401 10.8753 28.8916 10.8444 28.8363L5.72424 22.32C5.67962 22.2639 5.64843 22.1983 5.63308 22.1283C5.61772 22.0583 5.6186 21.9857 5.63566 21.9161L6.04314 20.2985L4.82422 19.0778C4.77009 19.0233 4.73016 18.9564 4.70792 18.8829C4.68568 18.8094 4.68181 18.7315 4.69666 18.6562L5.1821 16.2219ZM17.3182 16.2236C17.4989 17.1095 17.669 17.9794 17.8107 18.7447C18.39 18.7447 18.7639 19.2302 19.2192 19.2178C19.8535 19.2001 20.1139 18.9768 20.6135 18.766C19.8469 17.5586 18.6806 16.6588 17.3182 16.2236ZM22.9663 17.8075C22.7325 17.8075 22.5004 17.9617 22.5004 18.2735V19.239C20.9271 19.3365 20.3336 20.155 19.2192 20.155C18.7904 20.155 18.3192 19.9867 18.1438 19.8219C17.6814 19.3879 17.0542 20.0345 17.4794 20.4863C17.7735 20.7999 18.3564 20.9788 18.5282 21.016L16.9195 24.6374C16.8888 24.7016 16.8724 24.7717 16.8717 24.8429C16.8717 25.9732 17.6318 27.1851 19.2192 27.1851C20.8066 27.1851 21.5614 26.0104 21.5614 24.8429C21.562 24.7624 21.5419 24.683 21.5029 24.6126L19.9013 21.016C20.5497 20.9912 21.4923 20.155 22.9663 20.1585C24.4404 20.1585 25.3829 20.9948 26.0313 21.0178L24.4297 24.6143C24.3908 24.6848 24.3707 24.7641 24.3713 24.8447C24.3713 26.014 25.126 27.1886 26.7134 27.1886C28.3009 27.1886 29.0609 25.9768 29.0609 24.8464C29.0601 24.7753 29.0437 24.7051 29.0131 24.6409L27.4044 21.0196C27.5762 20.9824 28.1591 20.8034 28.455 20.4881C28.8802 20.0381 28.2513 19.3896 27.7888 19.8255C27.6135 19.9885 27.1422 20.1568 26.7134 20.1568C25.599 20.1568 25.0055 19.3383 23.434 19.2408V18.2752C23.434 17.9652 23.2002 17.8093 22.9663 17.8111V17.8075ZM11.2484 18.3869L9.75129 19.457L10.3891 20.4137C10.4741 20.5448 10.6212 20.6263 10.7789 20.6263H11.7179C11.8738 20.6263 12.0208 20.5448 12.1076 20.4137L12.7454 19.457L11.2484 18.3869ZM16.59 20.8389L16.8593 21.9161C16.8947 22.0578 16.8628 22.2066 16.7707 22.32L11.6807 28.8008C11.6517 28.8646 11.6088 28.9211 11.5552 28.9662C11.5015 29.0113 11.4384 29.0438 11.3706 29.0613H16.8717V27.1638C16.2392 26.526 16.0107 25.7376 15.9345 24.8376C15.9345 24.6427 15.9876 24.4265 16.062 24.2565L17.2951 21.4838C17.0053 21.3377 16.7613 21.1146 16.59 20.8389ZM22.5004 21.0905V28.1241H20.6011C19.9527 28.1577 20.0005 29.0914 20.6241 29.0613L25.3085 29.0648C25.9321 29.0949 25.98 28.1613 25.3315 28.1258H23.434V21.0922C23.1151 21.094 22.8051 21.0905 22.5004 21.0905ZM12.3964 21.3846C12.1884 21.5004 11.9542 21.5614 11.7161 21.5617H10.7771C10.5396 21.561 10.3061 21.5 10.0985 21.3846L9.89657 22.6017L11.2484 26.999L12.6002 22.607L12.3964 21.3846ZM21.3434 21.5139C21.2832 21.517 21.2239 21.5302 21.168 21.5529L21.5614 22.4369C21.572 22.1003 21.549 21.7265 21.4799 21.5989C21.4675 21.5729 21.4479 21.551 21.4234 21.5359C21.3989 21.5208 21.3705 21.5132 21.3417 21.5139H21.3434ZM19.2192 21.7761L20.3708 24.3716H18.0676L19.2192 21.7761ZM26.7134 21.7796L27.865 24.3752H25.5618L26.7134 21.7796ZM17.8107 27.8211V29.0613H19.2777C19.1359 28.7034 19.0881 28.3225 19.384 28.101C18.8448 28.136 18.3052 28.0406 17.8107 27.8229V27.8211Z" fill="black"/>
</g>
<defs>
<clipPath id="clip0_2100_1217">
<rect width="30" height="30" fill="white"/>
</clipPath>
</defs>
</svg>
