<svg width="30" height="30" viewBox="0 0 30 30" fill="none" xmlns="http://www.w3.org/2000/svg">
<path fill-rule="evenodd" clip-rule="evenodd" d="M15 1.5625C7.57875 1.5625 1.5625 7.57875 1.5625 15C1.5625 22.4213 7.57875 28.4375 15 28.4375C22.4213 28.4375 28.4375 22.4213 28.4375 15C28.4375 7.57875 22.4213 1.5625 15 1.5625ZM14.9888 7.8125C13.9111 7.8125 12.8775 8.24043 12.1152 9.00223C11.353 9.76402 10.9244 10.7973 10.9238 11.875C10.9238 14.12 12.7463 15.9375 14.9913 15.9375C17.2363 15.9375 19.0575 14.12 19.0575 11.875C19.0568 10.7971 18.6281 9.76362 17.8656 9.00179C17.103 8.23995 16.0691 7.81217 14.9913 7.8125H14.9888ZM15 17.8125C12.4294 17.8055 9.95609 18.7952 8.1 20.5738C8.00888 20.6612 7.93638 20.7662 7.88686 20.8825C7.83733 20.9987 7.8118 21.1237 7.8118 21.25C7.8118 21.3763 7.83733 21.5013 7.88686 21.6176C7.93638 21.7338 8.00888 21.8388 8.1 21.9263C9.95609 23.7048 12.4294 24.6945 15 24.6875C17.5706 24.6945 20.0439 23.7048 21.9 21.9263C21.9911 21.8388 22.0636 21.7338 22.1131 21.6176C22.1627 21.5013 22.1882 21.3763 22.1882 21.25C22.1882 21.1237 22.1627 20.9987 22.1131 20.8825C22.0636 20.7662 21.9911 20.6612 21.9 20.5738C20.0439 18.7952 17.5706 17.8055 15 17.8125Z" fill="black"/>
</svg>
